                <svg id="Layer_2" data-name="Layer 2" xmlns="http://www.w3.org/2000/svg" xmlns:xlink="http://www.w3.org/1999/xlink" viewBox="0 0 2107.8 580.64">
                    <defs>
                    <style>
                        .cls-1 {
                        fill: url(#linear-gradient);
                        }
                    </style>
                    <linearGradient id="linear-gradient" x1="0" y1="290.32" x2="2107.8" y2="290.32" gradientUnits="userSpaceOnUse">
                        <stop offset="0" stop-color="#00fefb"/>
                        <stop offset=".11" stop-color="#06f4fb"/>
                        <stop offset=".28" stop-color="#16dbfb"/>
                        <stop offset=".5" stop-color="#32b1fc"/>
                        <stop offset=".76" stop-color="#5778fd"/>
                        <stop offset=".99" stop-color="#7d40ff"/>
                    </linearGradient>
                    </defs>
                    <g id="Layer_1-2" data-name="Layer 1">
                    <path class="cls-1" d="m1826.83,580.64c-38.68,0-72.25-7.27-109.65-15.37-5.13-1.11-10.36-2.24-15.71-3.38-100.77-21.44-164.25-68.82-225.64-114.64-71.69-53.5-139.4-104.04-262.08-112.18-81.87-5.44-194.37,16.03-303.18,36.79-96.64,18.44-189.16,36.09-261.1,36.09-21.24,0-40.68-1.54-57.92-5.05-53.95-10.99-103.27-37.95-150.78-82.43-41.5-38.84-76.47-85.81-110.3-131.22C242.3,70.85,166.14-31.41,7.71,43.72L0,27.45C41.11,7.96,78.25-1,113.55.09c31.99.98,61.69,10.22,90.82,28.25,53.26,32.97,95.66,89.89,140.55,150.16,67.25,90.29,136.78,183.66,250.24,206.77,72.13,14.69,188.67-7.54,312.06-31.09,109.92-20.97,223.59-42.67,307.74-37.07,57.49,3.82,108.83,17.22,156.97,40.96,42.84,21.13,79.36,48.39,114.69,74.76,59.83,44.66,121.7,90.83,218.62,111.46,5.37,1.14,10.62,2.28,15.77,3.39,100.49,21.77,161.15,34.91,378.92-71.18l7.88,16.18c-104.72,51.01-178.74,77.31-240.02,85.27-14.44,1.88-27.98,2.69-40.94,2.69Z"/>
                    </g>
                </svg>